<?xml version="1.0" standalone="no"?>
<!DOCTYPE svg PUBLIC "-//W3C//DTD SVG 20010904//EN"
 "http://www.w3.org/TR/2001/REC-SVG-20010904/DTD/svg10.dtd">
<svg version="1.0" xmlns="http://www.w3.org/2000/svg"
 width="325.000000pt" height="325.000000pt" viewBox="0 0 325.000000 325.000000"
 preserveAspectRatio="xMidYMid meet">
<metadata>
Created by potrace 1.14, written by Peter Selinger 2001-2017
</metadata>
<g transform="translate(0.000000,325.000000) scale(0.100000,-0.100000)"
fill="#000000" stroke="none">
<path d="M0 1625 l0 -1625 1625 0 1625 0 0 1625 0 1625 -1625 0 -1625 0 0
-1625z m2180 1552 l35 -17 -40 7 c-54 11 -1160 10 -1205 0 -27 -6 -31 -5 -17
3 39 25 125 28 647 27 497 -2 548 -4 580 -20z m-1314 -89 c-28 -44 -36 -142
-36 -449 0 -295 1 -308 19 -314 18 -5 19 -17 19 -190 0 -101 3 -188 6 -194 4
-6 4 -11 -1 -11 -4 0 -8 -32 -7 -70 1 -59 4 -74 25 -97 19 -23 20 -24 2 -10
l-21 18 -4 -58 c-4 -55 -2 -60 34 -103 44 -53 41 -67 -5 -22 l-32 31 5 -407 5
-407 36 3 c51 5 60 -12 57 -105 l-3 -78 -40 0 c-39 0 -40 -1 -47 -40 -11 -64
-9 -271 3 -302 6 -15 20 -39 32 -52 22 -24 22 -24 1 -13 -43 22 -59 77 -62
215 -2 70 -8 127 -13 127 -14 0 -10 -176 5 -247 7 -35 11 -63 9 -63 -2 0 -11
17 -20 37 -15 34 -16 109 -14 697 1 363 4 662 6 665 3 2 5 -185 5 -417 0 -275
3 -422 10 -422 7 0 10 144 10 412 0 364 -2 413 -16 429 -13 15 -16 41 -15 148
l2 131 -164 0 c-108 0 -167 -4 -174 -11 -16 -16 -43 -4 -43 20 0 24 25 34 40
15 10 -11 46 -14 176 -14 l164 0 0 45 0 45 -127 2 -128 2 129 3 c127 4 128 4
122 26 -3 12 -6 34 -6 50 0 27 -1 27 -67 29 l-68 2 67 3 66 4 4 70 c2 39 0 73
-3 75 -4 2 -14 -5 -24 -16 -10 -11 -23 -16 -29 -12 -6 3 -15 7 -21 7 -5 0 -10
5 -10 12 0 6 -3 15 -7 18 -4 4 -3 16 3 26 12 23 52 25 69 4 7 -8 15 -15 19
-15 3 0 7 152 9 338 2 185 7 353 12 372 9 33 36 80 46 80 2 0 -2 -10 -10 -22z
m22 -28 c-21 -42 -22 -54 -21 -349 1 -168 2 -317 2 -330 l1 -25 33 30 c22 20
20 16 -8 -14 l-40 -43 -3 328 c-3 336 1 381 36 429 25 32 24 24 0 -26z m1392
-30 c6 -21 9 -162 8 -350 l-2 -315 -6 325 c-5 310 -6 327 -28 375 -20 45 -20
48 -2 25 11 -14 24 -41 30 -60z m24 17 c12 -33 16 -111 19 -379 2 -186 1 -338
-4 -338 -4 0 -9 156 -11 348 -3 301 -5 352 -20 385 -10 21 -13 35 -8 32 4 -3
15 -24 24 -48z m-17 -809 c-2 -18 -4 -6 -4 27 0 33 2 48 4 33 2 -15 2 -42 0
-60z m-896 19 c-2 -27 -13 -54 -31 -77 -34 -43 -70 -145 -70 -198 0 -64 29
-137 77 -196 20 -24 24 -38 22 -87 l-2 -58 -35 32 c-65 60 -82 82 -117 148
-33 64 -35 72 -35 165 1 95 2 102 38 169 21 39 42 69 48 68 6 -1 26 14 45 35
19 20 25 30 14 22 -18 -14 -19 -14 -6 2 7 10 17 16 21 13 5 -3 12 0 15 6 12
19 19 -1 16 -44z m939 -10 c0 -23 -5 -49 -10 -57 -7 -11 -10 4 -10 48 0 40 4
61 10 57 6 -3 10 -25 10 -48z m-1015 3 c-20 -23 -29 -21 -19 4 3 9 13 16 22
16 13 0 12 -3 -3 -20z m361 -7 c-4 -16 -15 -39 -25 -53 -18 -25 -66 -49 -76
-38 -13 13 26 79 57 98 44 27 51 25 44 -7z m611 -160 c-2 -21 -4 -6 -4 32 0
39 2 55 4 38 2 -18 2 -50 0 -70z m-1992 77 c4 -6 82 -11 193 -12 l187 -3 -184
-2 c-155 -3 -188 -6 -203 -20 -17 -15 -20 -15 -35 -1 -9 9 -13 24 -10 32 7 18
42 22 52 6z m2022 -92 c-2 -18 -4 -4 -4 32 0 36 2 50 4 33 2 -18 2 -48 0 -65z
m-737 60 c19 1 55 4 80 7 35 5 52 1 79 -15 l33 -21 -20 -22 c-49 -52 -49 -119
-1 -165 16 -15 29 -31 29 -36 0 -17 -63 -107 -82 -117 -14 -7 -33 -7 -68 2
-38 10 -57 10 -95 -1 -42 -12 -49 -11 -73 7 -15 11 -42 48 -59 82 -27 52 -33
74 -33 127 0 76 18 116 63 145 25 16 41 19 72 13 22 -4 56 -6 75 -6z m-1090
-79 c0 -5 17 -10 38 -11 l37 -1 -35 -4 c-19 -3 -41 -9 -47 -15 -7 -6 -20 -8
-28 -4 -18 7 -20 43 -2 49 16 5 37 -3 37 -14z m1797 -81 c-2 -13 -4 -3 -4 22
0 25 2 35 4 23 2 -13 2 -33 0 -45z m30 -5 c-2 -16 -4 -5 -4 22 0 28 2 40 4 28
2 -13 2 -35 0 -50z m-409 24 c5 -24 -24 -21 -31 4 -4 15 -1 19 11 17 9 -2 18
-11 20 -21z m-13 -67 c0 -44 -8 -51 -25 -20 -8 14 -8 26 0 40 17 31 25 24 25
-20z m392 -97 c-2 -21 -4 -4 -4 37 0 41 2 58 4 38 2 -21 2 -55 0 -75z m30 25
c-2 -18 -4 -6 -4 27 0 33 2 48 4 33 2 -15 2 -42 0 -60z m-2022 2 c3 -5 20 -10
36 -10 17 0 28 -4 25 -9 -3 -5 -14 -7 -24 -4 -10 2 -24 -3 -31 -11 -27 -33
-72 -10 -57 29 6 17 42 20 51 5z m277 -17 c-40 -2 -103 -2 -140 0 -37 2 -4 3
73 3 77 0 107 -2 67 -3z m105 1 c-3 -3 -12 -4 -19 -1 -8 3 -5 6 6 6 11 1 17
-2 13 -5z m1640 -126 c-2 -18 -4 -4 -4 32 0 36 2 50 4 33 2 -18 2 -48 0 -65z
m-30 -30 c-2 -18 -4 -6 -4 27 0 33 2 48 4 33 2 -15 2 -42 0 -60z m-1499 9 c20
-21 21 -25 6 -45 -19 -27 -45 -28 -68 -3 -23 25 -5 70 30 71 6 0 20 -10 32
-23z m1590 -879 c66 5 92 -11 92 -54 0 -20 -5 -24 -30 -24 -20 0 -30 5 -30 15
0 8 -7 15 -15 15 -11 0 -15 -12 -15 -50 0 -48 14 -67 26 -35 4 9 19 15 35 15
24 0 29 -4 29 -24 0 -37 -22 -48 -90 -44 l-60 3 0 -153 c0 -111 -4 -162 -14
-187 -8 -19 -17 -35 -20 -35 -3 0 0 12 7 28 9 20 13 199 17 697 4 595 5 623 8
249 l2 -420 58 4z m-98 -507 c-5 -20 -21 -49 -35 -66 l-25 -30 27 53 c24 48
27 65 31 202 l5 150 -32 6 -31 7 0 93 c0 93 0 94 24 94 14 0 28 5 31 10 4 6
-7 10 -24 10 -26 0 -31 4 -31 25 0 21 5 25 30 25 l30 0 2 368 c2 221 4 114 5
-272 2 -401 -1 -652 -7 -675z m-980 1099 c0 -16 -7 -20 -35 -20 -28 0 -35 4
-35 20 0 16 7 20 35 20 28 0 35 -4 35 -20z m630 -13 c0 -31 2 -33 28 -29 50 7
63 -18 60 -112 l-3 -81 -30 0 -30 0 -3 73 c-2 39 -7 72 -12 72 -5 0 -10 -33
-12 -72 l-3 -73 -32 -3 -33 -3 0 130 0 131 35 0 c33 0 35 -2 35 -33z m-450 3
c0 -15 -7 -20 -25 -20 l-25 0 0 -106 0 -105 -32 3 -33 3 -3 103 c-2 94 -4 102
-22 102 -13 0 -20 7 -20 20 0 18 7 20 80 20 73 0 80 -2 80 -20z m-182 -127
l-3 -98 -30 0 -30 0 -3 98 -3 97 36 0 36 0 -3 -97z m343 76 c14 -14 19 -30 17
-57 -3 -37 -4 -37 -50 -40 -34 -2 -48 -7 -48 -18 0 -7 7 -14 15 -14 8 0 15 5
15 10 0 6 16 10 35 10 38 0 44 -13 21 -46 -11 -15 -27 -19 -71 -19 -71 0 -85
16 -85 97 0 75 20 98 85 98 32 0 51 -6 66 -21z m177 5 c32 -22 26 -58 -11 -62
-18 -2 -29 2 -33 12 -12 32 -24 15 -24 -34 0 -27 5 -50 10 -50 6 0 10 7 10 15
0 10 11 15 35 15 27 0 35 -4 35 -18 0 -51 -85 -81 -135 -48 -23 15 -25 23 -25
86 0 49 4 73 16 84 20 21 93 21 122 0z m-488 -334 c0 -11 -7 -20 -15 -20 -8 0
-15 5 -15 10 0 6 -4 10 -10 10 -5 0 -10 -15 -10 -34 0 -19 5 -38 10 -41 6 -3
10 1 10 9 0 9 7 16 16 16 10 0 14 -7 12 -22 -2 -19 -9 -23 -38 -23 -34 0 -35
1 -38 44 -5 61 2 71 43 71 28 0 35 -4 35 -20z m105 -42 c0 -60 -14 -76 -34
-40 -10 16 -10 16 -11 0 0 -10 -7 -18 -15 -18 -12 0 -15 13 -15 61 l0 60 38
-3 37 -3 0 -57z m95 52 c0 -5 -9 -10 -20 -10 -11 0 -20 -5 -20 -11 0 -6 9 -13
20 -16 26 -7 26 -23 -1 -23 -27 0 -19 -24 9 -28 34 -5 15 -22 -24 -22 l-34 0
0 60 0 60 35 0 c19 0 35 -4 35 -10z m103 -50 c15 -62 12 -69 -24 -47 -17 10
-23 10 -26 0 -5 -14 -33 -18 -33 -5 0 7 18 76 25 100 3 6 13 12 23 12 15 0 23
-13 35 -60z m107 50 c0 -5 -4 -10 -9 -10 -6 0 -11 -21 -13 -47 -2 -36 -7 -49
-20 -51 -15 -3 -18 4 -18 47 0 28 -4 51 -10 51 -5 0 -10 5 -10 10 0 6 18 10
40 10 22 0 40 -4 40 -10z m50 -50 c0 -47 -3 -60 -15 -60 -12 0 -15 13 -15 60
0 47 3 60 15 60 12 0 15 -13 15 -60z m60 29 c0 -17 4 -28 10 -24 6 3 10 17 10
31 0 17 6 24 19 24 18 0 18 -3 4 -60 -12 -46 -20 -60 -34 -60 -12 0 -21 10
-25 28 -3 15 -10 42 -14 60 -7 28 -6 32 11 32 15 0 19 -7 19 -31z m150 21 c0
-5 -9 -10 -20 -10 -11 0 -20 -7 -20 -15 0 -8 7 -15 15 -15 8 0 15 -4 15 -10 0
-5 -7 -10 -15 -10 -8 0 -15 -7 -15 -15 0 -8 9 -15 20 -15 11 0 20 -4 20 -10 0
-5 -16 -10 -35 -10 l-35 0 0 60 0 60 35 0 c19 0 35 -4 35 -10z m-750 -270 l0
-130 -30 0 -30 0 0 130 0 130 30 0 30 0 0 -130z m-510 78 c6 -24 20 -76 31
-116 10 -40 19 -77 19 -82 0 -16 -60 -12 -66 5 -4 9 -19 15 -35 15 -17 0 -32
-6 -35 -15 -7 -18 -64 -21 -64 -3 0 6 9 44 19 82 11 39 25 90 31 114 10 40 12
42 50 42 38 0 40 -2 50 -42z m408 -30 c14 -12 17 -145 3 -167 -6 -9 -21 -12
-44 -9 -34 4 -36 2 -39 -27 -3 -26 -7 -30 -33 -30 l-30 0 -3 122 -3 122 68 0
c37 -1 74 -5 81 -11z m284 -5 c11 -10 18 -30 18 -55 l0 -38 -50 0 c-43 0 -50
-3 -50 -20 0 -11 7 -20 15 -20 8 0 15 5 15 10 0 6 16 10 35 10 38 0 44 -13 22
-44 -10 -14 -25 -16 -77 -14 l-65 3 -3 78 c-2 50 1 84 9 93 17 20 107 18 131
-3z m255 -13 c12 -24 11 -25 -19 -28 -18 -2 -34 1 -36 7 -6 19 -22 12 -22 -9
0 -16 7 -20 35 -20 37 0 55 -20 55 -63 0 -37 -22 -48 -87 -45 -55 3 -58 4 -61
31 -3 24 0 27 27 27 17 0 31 -4 31 -10 0 -5 5 -10 10 -10 6 0 10 7 10 15 0 10
-10 15 -29 15 -35 0 -54 21 -54 60 0 47 19 61 77 58 42 -3 53 -7 63 -28z m181
18 c7 -7 12 -31 12 -54 l0 -43 -47 -3 c-36 -2 -49 -7 -51 -20 -2 -13 3 -18 17
-18 12 0 21 5 21 10 0 6 14 10 31 10 27 0 30 -3 27 -27 -3 -27 -6 -28 -66 -31
-38 -2 -69 2 -78 9 -20 17 -19 142 2 163 19 19 114 22 132 4z m102 0 c0 -9 3
-9 12 0 7 7 33 12 59 12 l48 0 12 -57 c13 -63 12 -64 33 30 5 22 12 27 37 27
28 0 31 -3 25 -22 -3 -13 -13 -56 -23 -95 l-17 -73 -42 0 -42 0 -23 93 c-16
63 -25 83 -27 65 -2 -19 -9 -28 -22 -28 -23 0 -30 -19 -30 -81 0 -48 -1 -49
-30 -49 l-30 0 0 95 0 95 30 0 c17 0 30 -5 30 -12z m668 0 c7 -7 12 -31 12
-54 l0 -43 -47 -3 c-34 -2 -48 -7 -48 -18 0 -8 8 -16 18 -18 9 -2 17 1 17 7 0
6 14 11 31 11 27 0 30 -3 27 -27 -3 -27 -6 -28 -66 -31 -38 -2 -69 2 -78 9
-20 17 -19 142 2 163 19 19 114 22 132 4z m-1664 -633 c72 -22 1119 -22 1191
0 61 18 71 11 19 -12 -36 -17 -86 -18 -614 -18 -574 0 -575 0 -615 22 -48 26
-45 27 19 8z"/>
<path d="M837 2313 c-11 -10 -8 -143 3 -143 6 0 10 32 10 75 0 75 -1 81 -13
68z"/>
<path d="M830 2100 c0 -33 4 -60 10 -60 6 0 10 27 10 60 0 33 -4 60 -10 60 -6
0 -10 -27 -10 -60z"/>
<path d="M830 1991 c0 -22 5 -43 10 -46 6 -4 10 12 10 39 0 25 -4 46 -10 46
-5 0 -10 -18 -10 -39z"/>
<path d="M830 1876 c0 -30 5 -58 10 -61 6 -4 10 17 10 54 0 34 -4 61 -10 61
-5 0 -10 -24 -10 -54z"/>
<path d="M830 1741 c0 -33 5 -63 10 -66 6 -4 10 18 10 59 0 37 -4 66 -10 66
-6 0 -10 -26 -10 -59z"/>
<path d="M882 713 c2 -27 8 -48 13 -48 6 0 11 21 13 48 3 38 0 47 -13 47 -13
0 -16 -9 -13 -47z"/>
<path d="M739 1673 l-24 -28 28 24 c25 23 32 31 24 31 -2 0 -14 -12 -28 -27z"/>
<path d="M1560 1295 c0 -8 7 -15 15 -15 8 0 15 7 15 15 0 8 -7 15 -15 15 -8 0
-15 -7 -15 -15z"/>
<path d="M1390 995 c0 -8 5 -15 10 -15 6 0 10 7 10 15 0 8 -4 15 -10 15 -5 0
-10 -7 -10 -15z"/>
<path d="M1590 966 c0 -9 5 -16 10 -16 6 0 10 4 10 9 0 6 -4 13 -10 16 -5 3
-10 -1 -10 -9z"/>
<path d="M680 758 c0 -7 -3 -23 -6 -35 -5 -19 -2 -23 16 -23 16 0 20 4 16 16
-3 9 -6 24 -6 35 0 10 -4 19 -10 19 -5 0 -10 -6 -10 -12z"/>
<path d="M1070 710 c0 -37 4 -50 13 -47 7 2 12 21 12 47 0 26 -5 45 -12 48 -9
2 -13 -11 -13 -48z"/>
<path d="M1350 745 c0 -8 7 -15 15 -15 8 0 15 7 15 15 0 8 -7 15 -15 15 -8 0
-15 -7 -15 -15z"/>
<path d="M1780 745 c0 -8 9 -15 20 -15 11 0 20 7 20 15 0 8 -9 15 -20 15 -11
0 -20 -7 -20 -15z"/>
<path d="M2550 745 c0 -8 9 -15 20 -15 11 0 20 7 20 15 0 8 -9 15 -20 15 -11
0 -20 -7 -20 -15z"/>
</g>
</svg>
