<svg viewBox="0 0 176 25" xmlns="http://www.w3.org/2000/svg" fill="none" height="25" width="176"><path d="M5.584 19V16.856H0.672V15.352L5.936 7.72H7.632V15.16H9.216V16.856H7.632V19H5.584ZM5.584 15.16V10.856L2.64 15.16H5.584ZM10.4578 19V16.776H12.6978V19H10.4578ZM18.3625 19.16C17.0505 19.16 16.0212 18.8773 15.2745 18.312C14.5385 17.7467 14.1705 16.9627 14.1705 15.96C14.1705 15.2773 14.3465 14.696 14.6985 14.216C15.0612 13.736 15.5305 13.4 16.1065 13.208C15.5945 12.984 15.1892 12.6427 14.8905 12.184C14.6025 11.7253 14.4585 11.1973 14.4585 10.6C14.4585 9.65067 14.8105 8.90933 15.5145 8.376C16.2185 7.832 17.1678 7.56 18.3625 7.56C19.5678 7.56 20.5225 7.832 21.2265 8.376C21.9305 8.90933 22.2825 9.65067 22.2825 10.6C22.2825 11.1973 22.1332 11.7307 21.8345 12.2C21.5465 12.6587 21.1518 12.9947 20.6505 13.208C21.2265 13.4 21.6852 13.7413 22.0265 14.232C22.3785 14.712 22.5545 15.288 22.5545 15.96C22.5545 16.9627 22.1812 17.7467 21.4345 18.312C20.6985 18.8773 19.6745 19.16 18.3625 19.16ZM18.3625 12.488C18.9918 12.488 19.4825 12.3387 19.8345 12.04C20.1972 11.7413 20.3785 11.3307 20.3785 10.808C20.3785 10.296 20.1972 9.896 19.8345 9.608C19.4825 9.30933 18.9918 9.16 18.3625 9.16C17.7332 9.16 17.2425 9.30933 16.8905 9.608C16.5385 9.896 16.3625 10.296 16.3625 10.808C16.3625 11.3307 16.5385 11.7413 16.8905 12.04C17.2425 12.3387 17.7332 12.488 18.3625 12.488ZM18.3625 17.56C19.8878 17.56 20.6505 16.9787 20.6505 15.816C20.6505 14.664 19.8878 14.088 18.3625 14.088C17.6158 14.088 17.0452 14.232 16.6505 14.52C16.2665 14.808 16.0745 15.24 16.0745 15.816C16.0745 16.392 16.2665 16.8293 16.6505 17.128C17.0452 17.416 17.6158 17.56 18.3625 17.56Z" fill="white"></path><path d="M174.005 10.362C170.738 10.3604 167.471 10.3612 164.204 10.3616C164.204 11.7166 164.202 13.0717 164.205 14.4263C166.097 14.4259 167.989 14.4255 169.88 14.4263C169.661 15.7248 168.889 16.9122 167.795 17.6432C167.107 18.1057 166.317 18.406 165.502 18.5487C164.682 18.6887 163.834 18.7066 163.016 18.541C162.184 18.375 161.39 18.0284 160.698 17.5398C159.59 16.7616 158.745 15.623 158.311 14.3416C157.867 13.0383 157.864 11.588 158.313 10.2859C158.624 9.36818 159.143 8.52042 159.824 7.83052C160.665 6.97014 161.757 6.35509 162.935 6.10287C163.943 5.88769 165.006 5.92875 165.992 6.22733C166.831 6.482 167.605 6.94165 168.238 7.54655C168.878 6.9099 169.515 6.26962 170.154 5.63179C170.49 5.28847 170.842 4.96017 171.166 4.6075C170.196 3.70928 169.058 2.98724 167.815 2.53081C165.577 1.7071 163.053 1.68961 160.799 2.46947C158.26 3.33878 156.098 5.23767 154.899 7.63778C154.482 8.46479 154.177 9.34752 153.994 10.2555C153.534 12.5176 153.855 14.9295 154.898 16.9899C155.576 18.3348 156.548 19.5303 157.728 20.4676C158.84 21.3548 160.137 22.0102 161.512 22.3759C163.247 22.8412 165.094 22.8307 166.84 22.4332C168.419 22.07 169.912 21.3158 171.104 20.215C172.365 19.0568 173.263 17.5309 173.739 15.8912C174.259 14.1025 174.33 12.193 174.005 10.362Z" fill="white"></path><path d="M39 6L40.7961 11.5279H46.6085L41.9062 14.9443L43.7023 20.4721L39 17.0557L34.2977 20.4721L36.0938 14.9443L31.3915 11.5279H37.2039L39 6Z" fill="white"></path><path d="M59 6L60.7961 11.5279H66.6085L61.9062 14.9443L63.7023 20.4721L59 17.0557L54.2977 20.4721L56.0938 14.9443L51.3915 11.5279H57.2039L59 6Z" fill="white"></path><path d="M79 6L80.7961 11.5279H86.6085L81.9062 14.9443L83.7023 20.4721L79 17.0557L74.2977 20.4721L76.0938 14.9443L71.3915 11.5279H77.2039L79 6Z" fill="white"></path><path d="M99 6L100.796 11.5279H106.608L101.906 14.9443L103.702 20.4721L99 17.0557L94.2977 20.4721L96.0938 14.9443L91.3915 11.5279H97.2039L99 6Z" fill="white"></path><path d="M119 7.61803L120.321 11.6824L120.433 12.0279H120.796H125.07L121.612 14.5398L121.318 14.7533L121.431 15.0988L122.751 19.1631L119.294 16.6512L119 16.4377L118.706 16.6512L115.249 19.1631L116.569 15.0988L116.682 14.7533L116.388 14.5398L112.93 12.0279H117.204H117.567L117.679 11.6824L119 7.61803Z" fill="url(#paint0_linear_1200_4180)" stroke="white"></path><defs><linearGradient gradientUnits="userSpaceOnUse" id="paint0_linear_1200_4180" x1="111" x2="126" y1="13.5" y2="13.5"><stop offset="0.577954" stop-color="white"></stop><stop offset="0.607931" stop-color="#4585C8"></stop></linearGradient></defs></svg>